[Header]
FileType HTR
DataType HTRS
FileVersion 1
NumSegments 64
NumFrames 4
DataFrameRate 30
EulerRotationOrder ZYX
CalibrationUnits mm
RotationUnits Degrees
GlobalAxisofGravity Y
BoneLengthAxis Y
ScaleFactor 1.0
[SegmentNames&Hierarchy]
Hips	GLOBAL
Spine	Hips
Spine1	Spine
Spine2	Spine1
Neck	Spine2
Head	Neck
LeftEye	Head
RightEye	Head
LeftShoulder	Spine2
LeftArm	LeftShoulder
LeftForeArm	LeftArm
LeftHand	LeftForeArm
LeftHandThumb1	LeftHand
LeftHandThumb2	LeftHandThumb1
LeftHandThumb3	LeftHandThumb2
LeftHandThumb4	LeftHandThumb3
LeftHandIndex1	LeftHand
LeftHandIndex2	LeftHandIndex1
LeftHandIndex3	LeftHandIndex2
LeftHandIndex4	LeftHandIndex3
LeftHandMiddle1	LeftHand
LeftHandMiddle2	LeftHandMiddle1
LeftHandMiddle3	LeftHandMiddle2
LeftHandMiddle4	LeftHandMiddle3
LeftHandRing1	LeftHand
LeftHandRing2	LeftHandRing1
LeftHandRing3	LeftHandRing2
LeftHandRing4	LeftHandRing3
LeftHandPinky1	LeftHand
LeftHandPinky2	LeftHandPinky1
LeftHandPinky3	LeftHandPinky2
LeftHandPinky4	LeftHandPinky3
RightShoulder	Spine2
RightArm	RightShoulder
RightForeArm	RightArm
RightHand	RightForeArm
RightHandPinky1	RightHand
RightHandPinky2	RightHandPinky1
RightHandPinky3	RightHandPinky2
RightHandPinky4	RightHandPinky3
RightHandRing1	RightHand
RightHandRing2	RightHandRing1
RightHandRing3	RightHandRing2
RightHandRing4	RightHandRing3
RightHandMiddle1	RightHand
RightHandMiddle2	RightHandMiddle1
RightHandMiddle3	RightHandMiddle2
RightHandMiddle4	RightHandMiddle3
RightHandIndex1	RightHand
RightHandIndex2	RightHandIndex1
RightHandIndex3	RightHandIndex2
RightHandIndex4	RightHandIndex3
RightHandThumb1	RightHand
RightHandThumb2	RightHandThumb1
RightHandThumb3	RightHandThumb2
RightHandThumb4	RightHandThumb3
LeftUpLeg	Hips
LeftLeg	LeftUpLeg
LeftFoot	LeftLeg
LeftToeBase	LeftFoot
RightUpLeg	Hips
RightLeg	RightUpLeg
RightFoot	RightLeg
RightToeBase	RightFoot
[BasePosition]
Hips	0	0	0	0	0	0	1
Spine	0	0	0	0	0	0	1
Spine1	0	0	0	0	0	0	1
Spine2	0	0	0	0	0	0	1
Neck	0	0	0	0	0	0	1
Head	0	0	0	0	0	0	1
LeftEye	0	0	0	0	0	0	1
RightEye	0	0	0	0	0	0	1
LeftShoulder	0	0	0	0	0	0	1
LeftArm	0	0	0	0	0	0	1
LeftForeArm	0	0	0	0	0	0	1
LeftHand	0	0	0	0	0	0	1
LeftHandThumb1	0	0	0	0	0	0	1
LeftHandThumb2	0	0	0	0	0	0	1
LeftHandThumb3	0	0	0	0	0	0	1
LeftHandThumb4	0	0	0	0	0	0	1
LeftHandIndex1	0	0	0	0	0	0	1
LeftHandIndex2	0	0	0	0	0	0	1
LeftHandIndex3	0	0	0	0	0	0	1
LeftHandIndex4	0	0	0	0	0	0	1
LeftHandMiddle1	0	0	0	0	0	0	1
LeftHandMiddle2	0	0	0	0	0	0	1
LeftHandMiddle3	0	0	0	0	0	0	1
LeftHandMiddle4	0	0	0	0	0	0	1
LeftHandRing1	0	0	0	0	0	0	1
LeftHandRing2	0	0	0	0	0	0	1
LeftHandRing3	0	0	0	0	0	0	1
LeftHandRing4	0	0	0	0	0	0	1
LeftHandPinky1	0	0	0	0	0	0	1
LeftHandPinky2	0	0	0	0	0	0	1
LeftHandPinky3	0	0	0	0	0	0	1
LeftHandPinky4	0	0	0	0	0	0	1
RightShoulder	0	0	0	0	0	0	1
RightArm	0	0	0	0	0	0	1
RightForeArm	0	0	0	0	0	0	1
RightHand	0	0	0	0	0	0	1
RightHandPinky1	0	0	0	0	0	0	1
RightHandPinky2	0	0	0	0	0	0	1
RightHandPinky3	0	0	0	0	0	0	1
RightHandPinky4	0	0	0	0	0	0	1
RightHandRing1	0	0	0	0	0	0	1
RightHandRing2	0	0	0	0	0	0	1
RightHandRing3	0	0	0	0	0	0	1
RightHandRing4	0	0	0	0	0	0	1
RightHandMiddle1	0	0	0	0	0	0	1
RightHandMiddle2	0	0	0	0	0	0	1
RightHandMiddle3	0	0	0	0	0	0	1
RightHandMiddle4	0	0	0	0	0	0	1
RightHandIndex1	0	0	0	0	0	0	1
RightHandIndex2	0	0	0	0	0	0	1
RightHandIndex3	0	0	0	0	0	0	1
RightHandIndex4	0	0	0	0	0	0	1
RightHandThumb1	0	0	0	0	0	0	1
RightHandThumb2	0	0	0	0	0	0	1
RightHandThumb3	0	0	0	0	0	0	1
RightHandThumb4	0	0	0	0	0	0	1
LeftUpLeg	0	0	0	0	0	0	1
LeftLeg	0	0	0	0	0	0	1
LeftFoot	0	0	0	0	0	0	1
LeftToeBase	0	0	0	0	0	0	1
RightUpLeg	0	0	0	0	0	0	1
RightLeg	0	0	0	0	0	0	1
RightFoot	0	0	0	0	0	0	1
RightToeBase	0	0	0	0	0	0	1
[Hips]
116	-209.3624573	993.1954346	20.65015411	8.492950439	-1.129182577	-10.83224964	1.0
117	-224.4276123	1016.327881	30.27154922	8.35664463	-1.084709644	-10.73250008	1.0
118	-238.2713928	1029.475586	44.56188965	7.55209446	-0.52428478	-9.601439476	1.0
119	-251.0667114	1031.592896	63.7868042	6.24315691	0.9006235003	-7.588760376	1.0
[Spine]
116	0	101.8159943	1.315000057	8.257685661	-4.618550301	2.065188646	1.0
117	0	101.8159943	1.315000057	7.460116386	-4.807293415	2.122629166	1.0
118	0	101.8159943	1.315000057	6.578217506	-4.827738285	1.637211204	1.0
119	0	101.8159943	1.315000057	5.706093311	-4.961811543	0.8094066381	1.0
[Spine1]
116	0	100.8349991	-10.00800037	3.657925606	-0.6272451282	0.9606273174	1.0
117	0	100.8349991	-10.00800037	3.321875334	-0.6645889878	0.7810288072	1.0
118	0	100.8349991	-10.00800037	2.777732611	-0.6889913082	0.4756065309	1.0
119	0	100.8349991	-10.00800037	2.084175348	-0.7347360253	0.175448373	1.0
[Spine2]
116	0	91	-13.73399925	3.660816431	-0.6096485257	0.9311106801	1.0
117	0	91	-13.73399925	3.322416782	-0.6576874256	0.7531874776	1.0
118	0	91	-13.73399925	2.773959875	-0.695894897	0.4539642036	1.0
119	0	91	-13.73399925	2.075810194	-0.7515390515	0.162836805	1.0
[Neck]
116	0	166.7169952	-25.16200066	-3.769096375	1.265533566	4.756328583	1.0
117	0	166.7169952	-25.16200066	-3.657652855	1.182695389	6.082081318	1.0
118	0	166.7169952	-25.16200066	-2.462192535	0.9278345704	6.989109039	1.0
119	0	166.7169952	-25.16200066	-0.5274918675	0.6136792302	7.179591179	1.0
[Head]
116	0	96.17900085	16.84999847	-26.67329788	11.00437737	-1.080738306	1.0
117	0	96.17900085	16.84999847	-23.45974922	11.54513168	-1.733341217	1.0
118	0	96.17900085	16.84999847	-19.28488541	11.21482658	-2.081903934	1.0
119	0	96.17900085	16.84999847	-15.20214939	10.26976204	-2.794734955	1.0
[LeftEye]
116	30.6760006	64.09500122	92.83599854	0	0	0	1.0
117	30.6760006	64.09500122	92.83599854	0	0	0	1.0
118	30.6760006	64.09500122	92.83599854	0	0	0	1.0
119	30.6760006	64.09500122	92.83599854	0	0	0	1.0
[RightEye]
116	-30.6760006	64.09500122	92.83499908	0	0	0	1.0
117	-30.6760006	64.09500122	92.83499908	0	0	0	1.0
118	-30.6760006	64.09500122	92.83499908	0	0	0	1.0
119	-30.6760006	64.09500122	92.83499908	0	0	0	1.0
[LeftShoulder]
116	45.70400238	109.4599991	-26.28000069	3.478296041	-32.00167847	-3.660902262	1.0
117	45.70400238	109.4599991	-26.28000069	3.500456333	-31.96544647	-3.738325119	1.0
118	45.70400238	109.4599991	-26.28000069	3.653301001	-31.66205406	-4.296368122	1.0
119	45.70400238	109.4599991	-26.28000069	3.930564165	-31.00675774	-5.363674164	1.0
[LeftArm]
116	105.923996	-5.24600029	-22.32099915	-29.28105927	-57.39786911	2.392357111	1.0
117	105.923996	-5.24600029	-22.32099915	-25.51467133	-57.84916306	-9.843610764	1.0
118	105.923996	-5.24600029	-22.32099915	-16.15754128	-56.97145462	-21.09784889	1.0
119	105.923996	-5.24600029	-22.32099915	0.1114028469	-55.03471756	-29.59672737	1.0
[LeftForeArm]
116	278.414978	-0.0009999999311	0	-2.97534225e-05	-70.39897919	-0.000213665553	1.0
117	278.414978	-0.0009999999311	0	6.610503078e-07	-67.54801941	-0.0002080112463	1.0
118	278.414978	-0.0009999999311	0	-6.505386409e-06	-60.56003571	-0.0001953365572	1.0
119	278.414978	-0.0009999999311	0	-1.059118586e-05	-51.60544968	-0.0001946380653	1.0
[LeftHand]
116	283.2879944	0	0	22.5351963	-8.819844246	26.25356674	1.0
117	283.2879944	0	0	15.68402481	-20.86589432	38.699646	1.0
118	283.2879944	0	0	13.00034237	-28.1178112	33.34968567	1.0
119	283.2879944	0	0	16.23844337	-26.9275322	16.2393837	1.0
[LeftHandThumb1]
116	24.6609993	-15.75	26.8239994	-1.441469431	-8.319266319	8.653975487	1.0
117	24.6609993	-15.75	26.8239994	-1.441473246	-8.319275856	8.653969765	1.0
118	24.6609993	-15.75	26.8239994	-1.441472054	-8.319268227	8.653968811	1.0
119	24.6609993	-15.75	26.8239994	-1.441464663	-8.319263458	8.653966904	1.0
[LeftHandThumb2]
116	32.29800034	-18.64699936	18.64699936	6.693689823	35.79096222	-1.548082829	1.0
117	32.29800034	-18.64699936	18.64699936	6.693566799	35.78971481	-1.546316147	1.0
118	32.29800034	-18.64699936	18.64699936	6.694356918	35.79880524	-1.559463263	1.0
119	32.29800034	-18.64699936	18.64699936	6.694880009	35.80476379	-1.568042397	1.0
[LeftHandThumb3]
116	26.52600098	-15.31499958	15.31499958	-0.8592479825	28.98293686	24.40020943	1.0
117	26.52600098	-15.31499958	15.31499958	-0.8599377275	28.98135376	24.40037346	1.0
118	26.52600098	-15.31499958	15.31499958	-0.8547146916	28.99313354	24.39925957	1.0
119	26.52600098	-15.31499958	15.31499958	-0.851310432	29.0008297	24.39851379	1.0
[LeftHandThumb4]
116	19.54599953	-11.28499985	11.28499985	0	0	0	1.0
117	19.54599953	-11.28499985	11.28499985	0	0	0	1.0
118	19.54599953	-11.28499985	11.28499985	0	0	0	1.0
119	19.54599953	-11.28499985	11.28499985	0	0	0	1.0
[LeftHandIndex1]
116	91.09299469	-5.170999527	22.60099792	2.075231314	6.374016762	-51.86443329	1.0
117	91.09299469	-5.170999527	22.60099792	2.075519323	6.373724461	-51.86230469	1.0
118	91.09299469	-5.170999527	22.60099792	2.07338047	6.37582016	-51.87804794	1.0
119	91.09299469	-5.170999527	22.60099792	2.071983337	6.377191544	-51.88833618	1.0
[LeftHandIndex2]
116	36.76399994	0	0	-5.084234715	5.778056622	-82.67962646	1.0
117	36.76399994	0	0	-5.084240437	5.778058529	-82.67964935	1.0
118	36.76399994	0	0	-5.084238529	5.778059959	-82.67965698	1.0
119	36.76399994	0	0	-5.084237099	5.778058529	-82.67965698	1.0
[LeftHandIndex3]
116	28.83100128	0	0	-6.449677944	5.791766644	-96.164505	1.0
117	28.83100128	0	0	-6.449676514	5.791763306	-96.16448975	1.0
118	28.83100128	0	0	-6.449673653	5.791760921	-96.16449738	1.0
119	28.83100128	0	0	-6.449675083	5.791760445	-96.16449738	1.0
[LeftHandIndex4]
116	23.92700005	0	0	0	0	0	1.0
117	23.92700005	0	0	0	0	0	1.0
118	23.92700005	0	0	0	0	0	1.0
119	23.92700005	0	0	0	0	0	1.0
[LeftHandMiddle1]
116	95.33399963	0	0	-6.494753361	5.273252487	-74.30393219	1.0
117	95.33399963	0	0	-6.494759083	5.273251057	-74.30393982	1.0
118	95.33399963	0	0	-6.49476099	5.273256779	-74.30394745	1.0
119	95.33399963	0	0	-6.49476099	5.273263931	-74.30394745	1.0
[LeftHandMiddle2]
116	36.98199844	0	0	-7.583496571	5.554381371	-107.5965805	1.0
117	36.98199844	0	0	-7.583495617	5.554385662	-107.5965881	1.0
118	36.98199844	0	0	-7.583495617	5.554389	-107.5966034	1.0
119	36.98199844	0	0	-7.583498955	5.554391384	-107.5966034	1.0
[LeftHandMiddle3]
116	29.50900078	0	0	-1.61679852	4.031328678	-43.69363785	1.0
117	29.50900078	0	0	-1.616643429	4.03116703	-43.69139862	1.0
118	29.50900078	0	0	-1.617801547	4.032372952	-43.70790482	1.0
119	29.50900078	0	0	-1.618557334	4.033164024	-43.71869659	1.0
[LeftHandMiddle4]
116	28.3390007	0	0	0	0	0	1.0
117	28.3390007	0	0	0	0	0	1.0
118	28.3390007	0	0	0	0	0	1.0
119	28.3390007	0	0	0	0	0	1.0
[LeftHandRing1]
116	91.04499817	-0.4390000105	-18.65100098	-8.449879646	1.972003579	-92.66306305	1.0
117	91.04499817	-0.4390000105	-18.65100098	-8.44998455	1.971942663	-92.6640625	1.0
118	91.04499817	-0.4390000105	-18.65100098	-8.449239731	1.972337604	-92.65657043	1.0
119	91.04499817	-0.4390000105	-18.65100098	-8.448749542	1.972602725	-92.65168762	1.0
[LeftHandRing2]
116	31.54000092	0	0	-5.443724632	5.812747002	-86.23862457	1.0
117	31.54000092	0	0	-5.443662167	5.812743664	-86.23795319	1.0
118	31.54000092	0	0	-5.444132328	5.812774658	-86.24258423	1.0
119	31.54000092	0	0	-5.444435596	5.812793732	-86.24562836	1.0
[LeftHandRing3]
116	29.37700081	0	0	-1.45287478	3.852872849	-41.30955124	1.0
117	29.37700081	0	0	-1.452771783	3.852760077	-41.30810928	1.0
118	29.37700081	0	0	-1.453498125	3.853573322	-41.31882477	1.0
119	29.37700081	0	0	-1.45397079	3.854106665	-41.32583237	1.0
[LeftHandRing4]
116	26.47500038	0	0	0	0	0	1.0
117	26.47500038	0	0	0	0	0	1.0
118	26.47500038	0	0	0	0	0	1.0
119	26.47500038	0	0	0	0	0	1.0
[LeftHandPinky1]
116	80.77799988	-4.887000084	-38.06099701	-16.68251228	2.77772212	-98.34607697	1.0
117	80.77799988	-4.887000084	-38.06099701	-16.68257713	2.777513027	-98.34713745	1.0
118	80.77799988	-4.887000084	-38.06099701	-16.6820755	2.779031754	-98.33939362	1.0
119	80.77799988	-4.887000084	-38.06099701	-16.68175125	2.780029774	-98.33433533	1.0
[LeftHandPinky2]
116	36	0	0	-2.199986219	4.562767506	-51.46516037	1.0
117	36	0	0	-2.199968338	4.562749386	-51.46491241	1.0
118	36	0	0	-2.200122595	4.562860966	-51.46680069	1.0
119	36	0	0	-2.200214386	4.562932968	-51.46802902	1.0
[LeftHandPinky3]
116	21.14200211	0	0	-2.345814943	4.674815178	-53.27599716	1.0
117	21.14200211	0	0	-2.345639706	4.674676418	-53.27379608	1.0
118	21.14200211	0	0	-2.34695673	4.675649643	-53.28995132	1.0
119	21.14200211	0	0	-2.347815752	4.676289558	-53.30052185	1.0
[LeftHandPinky4]
116	19.75699997	0	0	0	0	0	1.0
117	19.75699997	0	0	0	0	0	1.0
118	19.75699997	0	0	0	0	0	1.0
119	19.75699997	0	0	0	0	0	1.0
[RightShoulder]
116	-45.70000076	109.4620056	-26.28000069	-0.5142102242	24.88980484	-10.947752	1.0
117	-45.70000076	109.4620056	-26.28000069	0.6566991806	26.15990448	-6.440012932	1.0
118	-45.70000076	109.4620056	-26.28000069	2.160256863	26.8200531	-0.7933478951	1.0
119	-45.70000076	109.4620056	-26.28000069	3.707441807	26.06010056	5.039172173	1.0
[RightArm]
116	-105.9280014	-5.248000145	-22.32099915	-36.51743698	44.76460648	8.806735992	1.0
117	-105.9280014	-5.248000145	-22.32099915	-32.57158661	49.92516708	16.20215607	1.0
118	-105.9280014	-5.248000145	-22.32099915	-21.64962769	51.87264252	29.9570694	1.0
119	-105.9280014	-5.248000145	-22.32099915	-8.734126091	49.0075531	42.92937469	1.0
[RightForeArm]
116	-278.414978	0	0	4.577534128e-05	94.79447937	6.103478518e-05	1.0
117	-278.414978	0	0	-0.0009581953054	91.76837921	-0.0001962042879	1.0
118	-278.414978	0	0	-0.0003958921006	85.03539276	-0.0001552327594	1.0
119	-278.414978	0	0	0.0001351901592	77.22976685	-3.19065548e-05	1.0
[RightHand]
116	-283.2879944	0	0.0009999999311	1.372668266	5.476178646	-17.33087921	1.0
117	-283.2879944	0	0.0009999999311	-1.148808241	17.06424713	-29.94082451	1.0
118	-283.2879944	0	0.0009999999311	-5.672194958	26.20454979	-37.0175972	1.0
119	-283.2879944	0	0.0009999999311	-8.251159668	33.02262497	-35.07366943	1.0
[RightHandPinky1]
116	-80.76699829	-4.885000229	-38.06000137	-15.18223667	-1.629498005	97.58633423	1.0
117	-80.76699829	-4.885000229	-38.06000137	-15.18224335	-1.629496455	97.58633423	1.0
118	-80.76699829	-4.885000229	-38.06000137	-15.18224335	-1.62949419	97.58631897	1.0
119	-80.76699829	-4.885000229	-38.06000137	-15.18224239	-1.629499197	97.58631134	1.0
[RightHandPinky2]
116	-36	0	0.0009999999311	-1.749816775	-3.626892567	51.51878357	1.0
117	-36	0	0.0009999999311	-1.749816418	-3.626904488	51.5187912	1.0
118	-36	0	0.0009999999311	-1.749814987	-3.62690258	51.51879883	1.0
119	-36	0	0.0009999999311	-1.749815941	-3.626899481	51.5187912	1.0
[RightHandPinky3]
116	-21.14200211	0	0	-1.867233038	-3.717076778	53.33226013	1.0
117	-21.14200211	0	0	-1.867228389	-3.717078209	53.33224869	1.0
118	-21.14200211	0	0	-1.867230535	-3.717077494	53.33225632	1.0
119	-21.14200211	0	0	-1.867234945	-3.717080832	53.33226013	1.0
[RightHandPinky4]
116	-19.75699997	0	0	0	0	0	1.0
117	-19.75699997	0	0	0	0	0	1.0
118	-19.75699997	0	0	0	0	0	1.0
119	-19.75699997	0	0	0	0	0	1.0
[RightHandRing1]
116	-91.03599548	-0.4390000105	-18.65100098	-7.065035343	-0.7974063754	91.91009521	1.0
117	-91.03599548	-0.4390000105	-18.65100098	-7.065032959	-0.7974040508	91.91009521	1.0
118	-91.03599548	-0.4390000105	-18.65100098	-7.065036774	-0.7973995805	91.91007233	1.0
119	-91.03599548	-0.4390000105	-18.65100098	-7.065036774	-0.7974051833	91.91007996	1.0
[RightHandRing2]
116	-31.54000092	0	0	-4.327741146	-4.620629311	86.24687958	1.0
117	-31.54000092	0	0	-4.327742577	-4.620632172	86.24687958	1.0
118	-31.54000092	0	0	-4.327748299	-4.620632172	86.24689484	1.0
119	-31.54000092	0	0	-4.327749252	-4.620631218	86.24688721	1.0
[RightHandRing3]
116	-29.37700081	0	0	-1.156968713	-3.063933134	41.36634064	1.0
117	-29.37700081	0	0	-1.156971693	-3.063928604	41.36634445	1.0
118	-29.37700081	0	0	-1.15696907	-3.063934803	41.36634445	1.0
119	-29.37700081	0	0	-1.156968951	-3.063938141	41.36634827	1.0
[RightHandRing4]
116	-26.47500038	0	0	0	0	0	1.0
117	-26.47500038	0	0	0	0	0	1.0
118	-26.47500038	0	0	0	0	0	1.0
119	-26.47500038	0	0	0	0	0	1.0
[RightHandMiddle1]
116	-95.32500458	0	0	-5.490186214	-4.098497868	73.57291412	1.0
117	-95.32500458	0	0	-5.490188599	-4.098498821	73.57289124	1.0
118	-95.32500458	0	0	-5.490193844	-4.098495483	73.57287598	1.0
119	-95.32500458	0	0	-5.490191936	-4.098495483	73.57287598	1.0
[RightHandMiddle2]
116	-36.98199844	0	0	-6.026573181	-4.415498257	107.5651245	1.0
117	-36.98199844	0	0	-6.026578426	-4.415496826	107.5651093	1.0
118	-36.98199844	0	0	-6.026584625	-4.415500164	107.5651245	1.0
119	-36.98199844	0	0	-6.026586533	-4.415498734	107.5651398	1.0
[RightHandMiddle3]
116	-29.50900078	0	0	-1.287465453	-3.20785737	43.75226974	1.0
117	-29.50900078	0	0	-1.287467599	-3.207853556	43.75226593	1.0
118	-29.50900078	0	0	-1.287463188	-3.207854986	43.7522583	1.0
119	-29.50900078	0	0	-1.287464142	-3.207856417	43.7522583	1.0
[RightHandMiddle4]
116	-28.3390007	0	0.0009999999311	0	0	0	1.0
117	-28.3390007	0	0.0009999999311	0	0	0	1.0
118	-28.3390007	0	0.0009999999311	0	0	0	1.0
119	-28.3390007	0	0.0009999999311	0	0	0	1.0
[RightHandIndex1]
116	-91.08300018	-5.167999744	22.60099792	2.643072128	-5.360717773	51.18569183	1.0
117	-91.08300018	-5.167999744	22.60099792	2.643071651	-5.360723495	51.18568039	1.0
118	-91.08300018	-5.167999744	22.60099792	2.643068314	-5.360724926	51.18567276	1.0
119	-91.08300018	-5.167999744	22.60099792	2.643073082	-5.360724926	51.18567276	1.0
[RightHandIndex2]
116	-36.76399994	0	0	-4.042250633	-4.593087196	82.69343567	1.0
117	-36.76399994	0	0	-4.042243958	-4.593082905	82.69342804	1.0
118	-36.76399994	0	0	-4.042239189	-4.593080997	82.69342804	1.0
119	-36.76399994	0	0	-4.042243481	-4.593080997	82.69342804	1.0
[RightHandIndex3]
116	-28.83100128	0	0	-5.126290798	-4.603962421	96.15284729	1.0
117	-28.83100128	0	0	-5.126283646	-4.603963375	96.15285492	1.0
118	-28.83100128	0	0	-5.126283169	-4.603962421	96.15285492	1.0
119	-28.83100128	0	0	-5.126284122	-4.603962421	96.15285492	1.0
[RightHandIndex4]
116	-23.92700005	0	0	0	0	0	1.0
117	-23.92700005	0	0	0	0	0	1.0
118	-23.92700005	0	0	0	0	0	1.0
119	-23.92700005	0	0	0	0	0	1.0
[RightHandThumb1]
116	-24.64799881	-15.72700024	26.82600021	-2.388244867	10.1685915	-8.287018776	1.0
117	-24.64799881	-15.72700024	26.82600021	-2.388244629	10.16859245	-8.287026405	1.0
118	-24.64799881	-15.72700024	26.82600021	-2.38824749	10.16858864	-8.287023544	1.0
119	-24.64799881	-15.72700024	26.82600021	-2.388242722	10.1685915	-8.28703022	1.0
[RightHandThumb2]
116	-32.29800034	-18.64699936	18.64699936	7.070500851	-37.46695328	0.6013727188	1.0
117	-32.29800034	-18.64699936	18.64699936	7.070497513	-37.46694183	0.6013961434	1.0
118	-32.29800034	-18.64699936	18.64699936	7.070497513	-37.46693039	0.6013972759	1.0
119	-32.29800034	-18.64699936	18.64699936	7.070494652	-37.46693039	0.601395905	1.0
[RightHandThumb3]
116	-26.52600098	-15.31399918	15.31399918	3.291620493	-34.41184616	-26.1004715	1.0
117	-26.52600098	-15.31399918	15.31399918	3.2916224	-34.41185379	-26.10047531	1.0
118	-26.52600098	-15.31399918	15.31399918	3.291635513	-34.41185379	-26.10050201	1.0
119	-26.52600098	-15.31399918	15.31399918	3.291638136	-34.41185379	-26.10050774	1.0
[RightHandThumb4]
116	-19.54599953	-11.28499985	11.28499985	0	0	0	1.0
117	-19.54599953	-11.28499985	11.28499985	0	0	0	1.0
118	-19.54599953	-11.28499985	11.28499985	0	0	0	1.0
119	-19.54599953	-11.28499985	11.28499985	0	0	0	1.0
[LeftUpLeg]
116	82.07800293	-67.51699829	-15.99599934	-30.7797699	25.98352623	8.192186356	1.0
117	82.07800293	-67.51699829	-15.99599934	-30.89109421	26.42348671	7.559578896	1.0
118	82.07800293	-67.51699829	-15.99599934	-30.73864174	25.71518517	4.385068417	1.0
119	82.07800293	-67.51699829	-15.99599934	-27.80026627	23.98423195	-0.9683307409	1.0
[LeftLeg]
116	0	-443.7049866	2.845999956	42.94904709	4.956297398	6.045833588	1.0
117	0	-443.7049866	2.845999956	41.1924057	4.736492634	5.449870586	1.0
118	0	-443.7049866	2.845999956	39.56690216	3.294281244	3.992788076	1.0
119	0	-443.7049866	2.845999956	32.49793243	2.516613722	2.929123878	1.0
[LeftFoot]
116	0	-444.2789917	-29.8219986	-15.6289959	10.77593708	-1.869389534	1.0
117	0	-444.2789917	-29.8219986	-6.631341934	9.845099449	-0.1498342156	1.0
118	0	-444.2789917	-29.8219986	-5.639228344	9.39129734	-1.771106839	1.0
119	0	-444.2789917	-29.8219986	-6.273499489	12.41158962	-1.815974712	1.0
[LeftToeBase]
116	0	-87.28699493	107.1060028	-7.356325626	2.786799314e-06	3.391148766e-06	1.0
117	0	-87.28699493	107.1060028	-8.142323494	-1.258174689e-05	3.504007282e-06	1.0
118	0	-87.28699493	107.1060028	-5.856666565	-0.005075112917	-0.05581642687	1.0
119	0	-87.28699493	107.1060028	-4.590821266	0.02991199307	0.3287096322	1.0
[RightUpLeg]
116	-82.07800293	-67.51699829	-15.99599934	-77.06498718	-26.89910316	4.978531361	1.0
117	-82.07800293	-67.51699829	-15.99599934	-68.4728241	-23.77321243	1.692145705	1.0
118	-82.07800293	-67.51699829	-15.99599934	-55.78736496	-17.55980873	-3.865558386	1.0
119	-82.07800293	-67.51699829	-15.99599934	-41.60240173	-9.532154083	-9.453988075	1.0
[RightLeg]
116	0	-443.7049866	2.861999989	87.70926666	0.7640948892	-10.13565254	1.0
117	0	-443.7049866	2.861999989	79.80603027	-0.8731621504	-10.46120739	1.0
118	0	-443.7049866	2.861999989	66.26256561	-3.25949502	-9.177326202	1.0
119	0	-443.7049866	2.861999989	49.40604401	-4.986879349	-6.62044096	1.0
[RightFoot]
116	0	-444.2770081	-29.83799934	6.28199625	-12.39761925	6.34344244	1.0
117	0	-444.2770081	-29.83799934	8.717256546	-10.69093513	10.4483366	1.0
118	0	-444.2770081	-29.83799934	11.79347038	-7.454729557	17.83664513	1.0
119	0	-444.2770081	-29.83799934	15.27113438	-5.244013309	23.47182274	1.0
[RightToeBase]
116	0	-87.28699493	107.1060028	2.219382524	1.842839811e-05	-4.397222256e-06	1.0
117	0	-87.28699493	107.1060028	2.585744143	1.347734542e-05	-1.182691676e-06	1.0
118	0	-87.28699493	107.1060028	1.481899619	-1.012889243e-06	3.703423545e-06	1.0
119	0	-87.28699493	107.1060028	-2.585669041	-0.01180056389	-0.0599738881	1.0
[EndOfFile]
